<?xml version="1.0" encoding="UTF-8" standalone="no"?>
<!-- Generator: Adobe Illustrator 22.1.0, SVG Export Plug-In . SVG Version: 6.00 Build 0)  -->

<svg
   xmlns:dc="http://purl.org/dc/elements/1.1/"
   xmlns:cc="http://creativecommons.org/ns#"
   xmlns:rdf="http://www.w3.org/1999/02/22-rdf-syntax-ns#"
   xmlns:svg="http://www.w3.org/2000/svg"
   xmlns="http://www.w3.org/2000/svg"
   xmlns:xlink="http://www.w3.org/1999/xlink"
   xmlns:sodipodi="http://sodipodi.sourceforge.net/DTD/sodipodi-0.dtd"
   xmlns:inkscape="http://www.inkscape.org/namespaces/inkscape"
   version="1.1"
   id="Hintergrund_xA0_Bild_1_"
   x="0px"
   y="0px"
   viewBox="0 0 2400 300"
   xml:space="preserve"
   inkscape:version="0.91 r13725"
   sodipodi:docname="neustart.svg"
   width="2400"
   height="300"><metadata
     id="metadata116"><rdf:RDF><cc:Work
         rdf:about=""><dc:format>image/svg+xml</dc:format><dc:type
           rdf:resource="http://purl.org/dc/dcmitype/StillImage" /><dc:title></dc:title></cc:Work></rdf:RDF></metadata><defs
     id="defs114" /><sodipodi:namedview
     pagecolor="#ffffff"
     bordercolor="#666666"
     borderopacity="1"
     objecttolerance="10"
     gridtolerance="10"
     guidetolerance="10"
     inkscape:pageopacity="0"
     inkscape:pageshadow="2"
     inkscape:window-width="1600"
     inkscape:window-height="847"
     id="namedview112"
     showgrid="false"
     inkscape:zoom="0.38692573"
     inkscape:cx="1412.5322"
     inkscape:cy="34.573944"
     inkscape:window-x="0"
     inkscape:window-y="0"
     inkscape:window-maximized="1"
     inkscape:current-layer="Hintergrund_xA0_Bild_1_" /><style
     type="text/css"
     id="style3">
	.st0{clip-path:url(#SVGID_2_);}
	.st1{clip-path:url(#SVGID_4_);fill:#292626;}
	.st2{clip-path:url(#SVGID_6_);fill:#181716;}
	.st3{clip-path:url(#SVGID_8_);fill:#FFFFFF;}
	.st4{clip-path:url(#SVGID_8_);fill:none;stroke:#181716;stroke-width:8;}
	.st5{clip-path:url(#SVGID_10_);fill:#181716;}
	.st6{clip-path:url(#SVGID_12_);fill:#181716;}
	.st7{fill:#181716;}
</style><g
     id="g26"
     transform="matrix(1.218297,0,0,1.218297,-266.99004,-93.077342)"><defs
       id="defs28"><rect
         id="SVGID_5_"
         x="240.39999"
         y="129.89999"
         width="933.79999"
         height="148.8" /></defs><clipPath
       id="SVGID_6_"><use
         xlink:href="#SVGID_5_"
         style="overflow:visible"
         id="use32"
         x="0"
         y="0"
         width="100%"
         height="100%" /></clipPath><path
       class="st2"
       d="m 1113.7,276.4 23.8,0 c 2.4,0 3.8,-1.5 3.8,-3.8 l 0,-108 c 0,-2.4 1.5,-3.8 3.8,-3.8 l 25.2,0 c 2.4,0 3.8,-1.5 3.8,-3.8 l 0,-21 c 0,-2.4 -1.5,-3.8 -3.8,-3.8 l -89.4,0 c -2.4,0 -3.8,1.5 -3.8,3.8 l 0,21 c 0,2.4 1.5,3.8 3.8,3.8 l 25.2,0 c 2.4,0 3.8,1.5 3.8,3.8 l 0,108 c 0,2.4 1.5,3.8 3.8,3.8 m -154.2,0 23.8,0 c 2.4,0 3.8,-1.5 3.8,-3.8 l 0,-48.5 c 0,-2.4 1.5,-3.8 3.8,-3.8 l 19.4,0 c 1,0 1.9,0.4 2.4,1.6 l 21.9,52.8 c 0.6,1.2 1.3,1.8 2.2,1.8 l 27.2,0 c 1.8,0 2.7,-0.9 2.7,-1.8 0,-0.9 -0.5,-2.4 -1.5,-4.7 l -22,-53.6 c -0.3,-0.9 -0.6,-1.6 -0.6,-2.5 0,-0.9 0.6,-1.6 1.7,-2.2 12.9,-7.9 19,-19.5 19,-35.2 0,-27.2 -17.2,-44.4 -45.9,-44.4 l -57.9,0 c -2.4,0 -3.8,1.5 -3.8,3.8 l 0,136.7 c 0,2.4 1.4,3.8 3.8,3.8 m 58.3,-83.7 -26.8,0 c -2.4,0 -3.8,-1.5 -3.8,-3.8 l 0,-24.3 c 0,-2.4 1.5,-3.8 3.8,-3.8 l 26.8,0 c 8.9,0 15.7,6 15.7,13.9 l 0,3.9 c 0,8 -7.1,14.1 -15.7,14.1 m -117.9,60.8 c 1.7,0 2.2,0.2 2.6,1.3 l 5.3,19.9 c 0.3,1.1 1.1,1.7 2.4,1.7 l 27.9,0 c 1.7,0 2.5,-0.6 2.5,-1.7 0,-0.3 0,-0.6 -0.2,-1.2 L 899,133.4 c -0.4,-1.6 -1.9,-2.4 -3.6,-2.4 l -34,0 c -1.7,0 -3.1,0.8 -3.6,2.4 0,0 -41,138.9 -41.1,139.3 -0.2,0.6 -0.5,1.6 -0.5,2.1 0,1.1 0.9,1.7 2.6,1.7 l 27.7,0 c 1.1,0 1.9,-0.6 2.2,-1.7 l 5.3,-19.9 c 0.3,-1.1 0.8,-1.3 2.6,-1.3 l 43.3,0 z m -35,-28.6 c -2,0 -2.6,-0.9 -2.2,-2.4 l 13,-48.5 0.6,-4.6 3.9,0 0.6,4.6 12.9,48.5 c 0.3,1.5 -0.3,2.4 -2.4,2.4 l -26.4,0 z m -102.9,51.5 23.8,0 c 2.4,0 3.8,-1.5 3.8,-3.8 l 0,-108 c 0,-2.4 1.5,-3.8 3.8,-3.8 l 25.2,0 c 2.4,0 3.8,-1.5 3.8,-3.8 l 0,-21 c 0,-2.4 -1.5,-3.8 -3.8,-3.8 l -89.4,0 c -2.4,0 -3.8,1.5 -3.8,3.8 l 0,21 c 0,2.4 1.5,3.8 3.8,3.8 l 25.2,0 c 2.4,0 3.8,1.5 3.8,3.8 l 0,108 c -0.1,2.4 1.4,3.8 3.8,3.8 m -99.8,2.3 c 32.1,0 50.9,-17.3 50.9,-44.2 0,-19.7 -13.7,-34.7 -43.6,-44.8 -18.4,-6.3 -24.3,-11 -24.3,-18.2 0,-7.4 6.2,-13.4 17.1,-13.4 9.8,0 17.1,4.5 20.4,11.8 0.8,1.7 2.1,2.6 3.5,2.6 0.6,0 1.1,-0.1 1.7,-0.3 l 20.4,-7.4 c 1.3,-0.4 1.9,-1.3 1.9,-2.4 0,-0.7 0,-1 -0.7,-3.4 -6.5,-18.3 -24,-29.1 -47.8,-29.1 -30.3,0 -49.6,19.5 -49.6,39.9 0,22.1 13,37.1 43.8,46.7 18.9,6 24,11.9 24,19.1 0,8 -6.1,13.8 -17.6,13.8 -12.6,0 -19.8,-4.8 -23.4,-12.6 -0.8,-1.7 -2.1,-2.6 -3.5,-2.6 -0.6,0 -1.1,0.1 -1.7,0.3 l -21.6,8.2 c -1.3,0.4 -1.9,1.3 -1.9,2.4 0,0.7 0,1 0.7,3.4 5.8,18.8 25.3,30.2 51.3,30.2 m -130.8,0 16.1,0 c 30.5,0 46,-16.2 46,-40.5 l 0,-103.4 c 0,-2.4 -1.5,-3.8 -3.8,-3.8 l -23.8,0 c -2.4,0 -3.8,1.5 -3.8,3.8 l 0,100 c -0.1,8.4 -5.6,15.3 -14.6,15.3 l -16.1,0 c -8.9,0 -14.6,-6.4 -14.6,-15.3 l 0,-100 c 0,-2.4 -1.5,-3.8 -3.8,-3.8 l -23.8,0 c -2.4,0 -3.8,1.5 -3.8,3.8 l 0,103.3 c -0.1,25.3 14.3,40.6 46,40.6 m -68.8,-2.3 c 2.4,0 3.8,-1.5 3.8,-3.8 l 0,-21 c 0,-2.4 -1.5,-3.8 -3.8,-3.8 l -56.4,0 c -2.4,0 -3.8,-1.5 -3.8,-3.8 l 0,-22.1 c 0,-2.4 1.5,-3.8 3.8,-3.8 l 46.3,0 c 2.4,0 3.8,-1.5 3.8,-3.8 l 0,-21 c 0,-2.4 -1.5,-3.8 -3.8,-3.8 l -46.3,0 c -2.4,0 -3.8,-1.5 -3.8,-3.8 l 0,-21 c 0,-2.4 1.5,-3.8 3.8,-3.8 l 56.4,0 c 2.4,0 3.8,-1.5 3.8,-3.8 l 0,-21 c 0,-2.4 -1.5,-3.8 -3.8,-3.8 l -87.8,0 c -2.4,0 -3.8,1.5 -3.8,3.8 l 0,136.7 c 0,2.4 1.5,3.8 3.8,3.8 l 87.8,0 z m -218.4,0 23.8,0 c 2.4,0 3.8,-1.5 3.8,-3.8 l 0,-45.9 c 0,-14.7 -1.6,-30.3 -3.4,-36.7 l 0.9,0 c 0,0.4 2,5.1 4.7,9.9 l 45.4,74.8 c 0.9,1.3 1.9,1.8 3.4,1.8 l 21.8,0 c 2.4,0 3.8,-1.5 3.8,-3.8 l 0,-137.9 c 0,-2.4 -1.5,-3.8 -3.8,-3.8 l -23.8,0 c -2.4,0 -3.8,1.5 -3.8,3.8 l 0,46.2 c 0,12.7 1.9,30.8 4.4,41.6 l -0.9,0 c -0.4,-1.5 -3.5,-7.7 -6.2,-12.2 l -44.8,-77.7 c -0.7,-1 -1.8,-1.6 -3.3,-1.6 l -22,0 c -2.4,0 -3.8,1.5 -3.8,3.8 l 0,137.8 c 0,2.3 1.4,3.7 3.8,3.7"
       id="path34"
       clip-path="url(#SVGID_6_)"
       inkscape:connector-curvature="0"
       style="fill:#181716" /></g><g
     id="g36"
     transform="matrix(1.218297,0,0,1.218297,-266.99004,-93.077342)"><g
       id="g38"><defs
         id="defs40"><rect
           id="SVGID_7_"
           x="1215.1"
           y="97.199997"
           width="209.8"
           height="209.8" /></defs><clipPath
         id="SVGID_8_"><use
           xlink:href="#SVGID_7_"
           style="overflow:visible"
           id="use44"
           x="0"
           y="0"
           width="100%"
           height="100%" /></clipPath><path
         class="st3"
         d="m 1320,303 c 55.7,0 100.9,-45.2 100.9,-100.9 0,-55.7 -45.2,-100.9 -100.9,-100.9 -55.7,0 -100.9,45.2 -100.9,100.9 0,55.7 45.2,100.9 100.9,100.9"
         id="path46"
         clip-path="url(#SVGID_8_)"
         inkscape:connector-curvature="0"
         style="fill:#ffffff" /><circle
         class="st4"
         cx="1320"
         cy="202.10001"
         r="100.9"
         id="circle48"
         clip-path="url(#SVGID_8_)"
         style="fill:none;stroke:#181716;stroke-width:8" /></g><g
       id="g50"><defs
         id="defs52"><rect
           id="SVGID_9_"
           x="1252.1"
           y="127.5"
           width="135.7"
           height="147.39999" /></defs><clipPath
         id="SVGID_10_"><use
           xlink:href="#SVGID_9_"
           style="overflow:visible"
           id="use56"
           x="0"
           y="0"
           width="100%"
           height="100%" /></clipPath><path
         class="st5"
         d="m 1339.3,148.9 0,17.5 c 0,1.8 0.9,3.5 2.5,4.4 11.9,7.3 19.8,20.3 20.1,35.2 0.4,23.3 -18.2,42.7 -41.4,43 -23.5,0.3 -42.6,-18.7 -42.6,-42.2 0,-15.3 8.1,-28.6 20.1,-36 1.5,-0.9 2.5,-2.6 2.5,-4.4 l 0,-17.5 c 0,-3.7 -3.8,-6.2 -7.2,-4.8 -24.6,10.5 -41.7,35.1 -41.3,63.7 0.5,36.3 31.2,66.8 67.3,67.1 37.7,0.3 68.3,-30.3 68.3,-68.1 0,-28.2 -17,-52.3 -41.3,-62.7 -3.2,-1.5 -7,1.1 -7,4.8"
         id="path58"
         clip-path="url(#SVGID_10_)"
         inkscape:connector-curvature="0"
         style="fill:#181716" /><path
         class="st5"
         d="m 1312.2,127.5 15.5,0 c 2.9,0 5.2,2.3 5.2,5.2 l 0,59.3 c 0,2.9 -2.3,5.2 -5.2,5.2 l -15.5,0 c -2.9,0 -5.2,-2.3 -5.2,-5.2 l 0,-59.3 c 0,-2.8 2.3,-5.2 5.2,-5.2"
         id="path60"
         clip-path="url(#SVGID_10_)"
         inkscape:connector-curvature="0"
         style="fill:#181716" /></g></g><g
     id="g62"
     transform="matrix(1.218297,0,0,1.218297,-266.99004,-93.077342)"><defs
       id="defs64"><rect
         id="SVGID_11_"
         x="1461"
         y="131"
         width="709.29999"
         height="145.39999" /></defs><clipPath
       id="SVGID_12_"><use
         xlink:href="#SVGID_11_"
         style="overflow:visible"
         id="use68"
         x="0"
         y="0"
         width="100%"
         height="100%" /></clipPath><path
       class="st6"
       d="m 2066,276.4 23.8,0 c 2.4,0 3.8,-1.5 3.8,-3.8 l 0,-45.9 c 0,-14.7 -1.6,-30.3 -3.4,-36.7 l 0.9,0 c 0,0.4 2,5.1 4.7,9.9 l 45.4,74.8 c 0.9,1.3 1.9,1.8 3.4,1.8 l 21.8,0 c 2.4,0 3.8,-1.5 3.8,-3.8 l 0,-137.9 c 0,-2.4 -1.5,-3.8 -3.8,-3.8 l -23.8,0 c -2.4,0 -3.8,1.5 -3.8,3.8 l 0,46.2 c 0,12.7 1.9,30.8 4.4,41.6 l -0.9,0 c -0.4,-1.5 -3.5,-7.7 -6.2,-12.2 l -44.8,-77.7 c -0.7,-1 -1.8,-1.6 -3.3,-1.6 l -22,0 c -2.4,0 -3.8,1.5 -3.8,3.8 l 0,137.8 c 0,2.3 1.4,3.7 3.8,3.7 m -127.9,0 23.8,0 c 2.4,0 3.8,-1.5 3.8,-3.8 l 0,-48.5 c 0,-2.4 1.5,-3.8 3.8,-3.8 l 19.4,0 c 1,0 1.9,0.4 2.4,1.6 l 21.9,52.8 c 0.6,1.2 1.3,1.8 2.2,1.8 l 27.2,0 c 1.8,0 2.7,-0.9 2.7,-1.8 0,-0.9 -0.4,-2.4 -1.5,-4.7 l -22,-53.6 c -0.3,-0.9 -0.6,-1.6 -0.6,-2.5 0,-0.9 0.6,-1.6 1.7,-2.2 12.9,-7.9 19,-19.5 19,-35.2 0,-27.2 -17.2,-44.4 -45.9,-44.4 l -57.9,0 c -2.4,0 -3.8,1.5 -3.8,3.8 l 0,136.7 c 0,2.4 1.4,3.8 3.8,3.8 m 58.3,-83.7 -26.8,0 c -2.4,0 -3.8,-1.5 -3.8,-3.8 l 0,-24.3 c 0,-2.4 1.5,-3.8 3.8,-3.8 l 26.8,0 c 8.9,0 15.7,6 15.7,13.9 l 0,3.9 c 0,8 -7.1,14.1 -15.7,14.1 m -85.3,83.7 c 2.4,0 3.8,-1.5 3.8,-3.8 l 0,-21 c 0,-2.4 -1.5,-3.8 -3.8,-3.8 l -56.4,0 c -2.4,0 -3.8,-1.5 -3.8,-3.8 l 0,-22.1 c 0,-2.4 1.5,-3.8 3.8,-3.8 l 46.3,0 c 2.4,0 3.8,-1.5 3.8,-3.8 l 0,-21 c 0,-2.4 -1.5,-3.8 -3.8,-3.8 l -46.3,0 c -2.4,0 -3.8,-1.5 -3.8,-3.8 l 0,-21 c 0,-2.4 1.5,-3.8 3.8,-3.8 l 56.4,0 c 2.4,0 3.8,-1.5 3.8,-3.8 l 0,-21 c 0,-2.4 -1.5,-3.8 -3.8,-3.8 l -87.8,0 c -2.4,0 -3.8,1.5 -3.8,3.8 l 0,136.7 c 0,2.4 1.5,3.8 3.8,3.8 l 87.8,0 z m -176.4,0 23.8,0 c 2.4,0 3.8,-1.5 3.8,-3.8 l 0,-56.8 42.2,-81.2 c 0.3,-0.7 0.6,-1.2 0.6,-1.8 0,-1.2 -1.1,-1.8 -2.6,-1.8 l -28.3,0 c -1.1,0 -2.6,0.6 -3.1,2 l -15.7,31.4 c -4.9,10 -8.3,21 -8.3,24.9 l -1.1,0 c 0,-4 -4.4,-15 -9.1,-24.9 L 1720.6,133 c -0.9,-1.5 -2.1,-2 -3.4,-2 l -26.4,0 c -1.8,0 -2.4,0.6 -2.4,1.8 0,0.6 0,1.1 0.3,1.8 l 42.1,81.2 0,56.8 c 0.1,2.4 1.5,3.8 3.9,3.8 m -73,-22.9 c 1.7,0 2.2,0.2 2.6,1.3 l 5.3,19.9 c 0.3,1.1 1.1,1.7 2.4,1.7 l 27.9,0 c 1.7,0 2.5,-0.6 2.5,-1.7 0,-0.3 0,-0.6 -0.2,-1.2 L 1661,133.3 c -0.4,-1.6 -1.9,-2.4 -3.6,-2.4 l -34,0 c -1.7,0 -3.1,0.8 -3.6,2.4 0,0 -41,138.9 -41.1,139.3 -0.2,0.6 -0.4,1.6 -0.4,2.1 0,1.1 0.9,1.7 2.6,1.7 l 27.7,0 c 1.1,0 1.9,-0.6 2.2,-1.7 l 5.3,-19.9 c 0.3,-1.1 0.8,-1.3 2.6,-1.3 l 43,0 z m -34.9,-28.6 c -2,0 -2.6,-0.9 -2.2,-2.4 l 13,-48.5 0.6,-4.6 3.9,0 0.6,4.6 12.9,48.5 c 0.3,1.5 -0.3,2.4 -2.4,2.4 l -26.4,0 z m -130.6,24 c -2.4,0 -3.8,-1.5 -3.8,-3.8 l 0,-24.4 c 0,-2.4 1.5,-3.8 3.8,-3.8 l 28.9,0 c 8.2,0 14.7,6.3 14.7,15.9 0,10.1 -6.5,16.1 -14.7,16.1 l -28.9,0 z m 0,-59.5 c -2.4,0 -3.8,-1.5 -3.8,-3.8 l 0,-22.1 c 0,-2.4 1.5,-3.8 3.8,-3.8 l 26.5,0 c 9.7,0 14.9,5.1 14.9,14.8 0,9.8 -5.3,14.9 -14.9,14.9 l -26.5,0 z m 33.3,87 c 24.5,0 40.3,-13.8 40.5,-41.6 0.1,-15 -6.7,-25.7 -18.3,-31.3 -0.9,-0.4 -1.3,-1.1 -1.3,-1.8 0,-0.4 0.1,-1.1 1.3,-1.8 10,-5.1 16.1,-16.5 16.1,-29 0,-25.3 -17.4,-38.9 -44.9,-38.9 l -58.1,0 c -2.4,0 -3.8,1.5 -3.8,3.8 l 0,136.7 c 0,2.4 1.5,3.8 3.8,3.8 l 64.7,0 z"
       id="path70"
       clip-path="url(#SVGID_12_)"
       inkscape:connector-curvature="0"
       style="fill:#181716" /></g></svg>