<?xml version="1.0" encoding="UTF-8" standalone="no"?>
<!-- Created with Inkscape (http://www.inkscape.org/) -->

<svg
   xmlns:dc="http://purl.org/dc/elements/1.1/"
   xmlns:cc="http://creativecommons.org/ns#"
   xmlns:rdf="http://www.w3.org/1999/02/22-rdf-syntax-ns#"
   xmlns:svg="http://www.w3.org/2000/svg"
   xmlns="http://www.w3.org/2000/svg"
   xmlns:xlink="http://www.w3.org/1999/xlink"
   xmlns:sodipodi="http://sodipodi.sourceforge.net/DTD/sodipodi-0.dtd"
   xmlns:inkscape="http://www.inkscape.org/namespaces/inkscape"
   width="210mm"
   height="50mm"
   viewBox="0 0 744.09449 177.16535"
   id="svg5163"
   version="1.1"
   inkscape:version="0.91 r13725"
   sodipodi:docname="piraten.svg">
  <defs
     id="defs5165">
    <clipPath
       id="SVGID_8_">
      <use
         xlink:href="#SVGID_7_"
         style="overflow:visible"
         id="use46"
         x="0"
         y="0"
         width="100%"
         height="100%" />
    </clipPath>
    <clipPath
       id="SVGID_4_">
      <use
         xlink:href="#SVGID_3_"
         style="overflow:visible"
         id="use24"
         x="0"
         y="0"
         width="100%"
         height="100%" />
    </clipPath>
    <clipPath
       id="SVGID_6_">
      <use
         xlink:href="#SVGID_5_"
         style="overflow:visible"
         id="use32"
         x="0"
         y="0"
         width="100%"
         height="100%" />
    </clipPath>
    <clipPath
       id="clipPath5119">
      <use
         xlink:href="#SVGID_5_"
         style="overflow:visible"
         id="use5121"
         x="0"
         y="0"
         width="100%"
         height="100%" />
    </clipPath>
    <clipPath
       id="clipPath5123">
      <use
         xlink:href="#SVGID_5_"
         style="overflow:visible"
         id="use5125"
         x="0"
         y="0"
         width="100%"
         height="100%" />
    </clipPath>
  </defs>
  <sodipodi:namedview
     id="base"
     pagecolor="#ffffff"
     bordercolor="#666666"
     borderopacity="1.0"
     inkscape:pageopacity="0.0"
     inkscape:pageshadow="2"
     inkscape:zoom="0.62621025"
     inkscape:cx="372.04724"
     inkscape:cy="526.1811"
     inkscape:document-units="px"
     inkscape:current-layer="layer1"
     showgrid="false"
     inkscape:window-width="1600"
     inkscape:window-height="847"
     inkscape:window-x="0"
     inkscape:window-y="0"
     inkscape:window-maximized="1" />
  <metadata
     id="metadata5168">
    <rdf:RDF>
      <cc:Work
         rdf:about="">
        <dc:format>image/svg+xml</dc:format>
        <dc:type
           rdf:resource="http://purl.org/dc/dcmitype/StillImage" />
        <dc:title></dc:title>
      </cc:Work>
    </rdf:RDF>
  </metadata>
  <g
     inkscape:label="Ebene 1"
     inkscape:groupmode="layer"
     id="layer1"
     transform="translate(0,-875.19685)">
    <g
       id="g16"
       transform="matrix(0.37808432,0,0,0.37808432,-77.181209,815.62718)">
      <g
         id="g18">
        <defs
           id="defs20">
          <rect
             id="SVGID_3_"
             x="229.8"
             y="201"
             width="377.20001"
             height="377.20001" />
        </defs>
        <clipPath
           id="clipPath5131">
          <use
             xlink:href="#SVGID_3_"
             style="overflow:visible"
             id="use5133"
             x="0"
             y="0"
             width="100%"
             height="100%" />
        </clipPath>
        <g
           class="st0"
           id="g26"
           clip-path="url(#SVGID_4_)">
          <defs
             id="defs28">
            <rect
               id="SVGID_5_"
               x="229.8"
               y="201"
               width="377.20001"
               height="377.20001" />
          </defs>
          <clipPath
             id="clipPath5138">
            <use
               xlink:href="#SVGID_5_"
               style="overflow:visible"
               id="use5140"
               x="0"
               y="0"
               width="100%"
               height="100%" />
          </clipPath>
          <path
             class="st1"
             d="m 418.5,218.4 c 94.7,0 171.4,76.8 171.4,171.4 0,94.6 -76.8,171.4 -171.4,171.4 -94.7,0 -171.4,-76.8 -171.4,-171.4 0,-94.6 76.8,-171.4 171.4,-171.4"
             id="path34"
             clip-path="url(#SVGID_6_)"
             inkscape:connector-curvature="0"
             style="fill:#ffffff" />
          <path
             class="st2"
             d="m 426.6,293.4 c 62.9,2 99.6,30.7 99.6,72.6 0,38.3 -23.8,59.3 -101.7,73.4 -58.5,10.1 -73.8,23.8 -73.8,48 0,14.5 4.8,25.8 13.3,35.9 -12.9,-8.1 -23.4,-25 -23.4,-44.4 0,-11.7 3.6,-23 11.3,-32.3 l 0,-137 -6.1,0 -2.4,0 c -1.2,0 -1.2,-1.2 -0.4,-1.6 2.8,-1.2 5.6,-2.4 8.9,-3.2 l 0,-28.6 c 0,-0.4 0.4,-1.2 1.2,-1.2 l 15.7,0 c 0.4,0 1.2,0.4 1.2,1.2 l 0,23.8 c 18.3,-5 39.7,-7.4 56.6,-6.6 m -56.9,139.2 c 2,-1.2 4.4,-2.4 6.9,-3.2 28.2,-12.1 42.4,-33.5 42.4,-60.1 0,-26.2 -19.4,-48.8 -49.2,-56.9 l 0,120.2 z"
             id="path36"
             clip-path="url(#SVGID_6_)"
             inkscape:connector-curvature="0"
             style="fill:#1d1d1b" />
          <path
             class="st2"
             d="m 418.1,218 c -94.4,0 -171.4,77 -171.4,171.8 0,94.8 76.6,171.8 171.4,171.8 94.8,0 171.9,-77 171.9,-171.8 C 590,295 512.9,218 418.1,218 m 0,16.5 c 85.9,0 155.3,69.4 155.3,155.3 0,85.5 -69.4,155.3 -155.3,155.3 -85.5,0 -154.9,-69.8 -154.9,-155.3 0,-85.9 69.4,-155.3 154.9,-155.3"
             id="path38"
             clip-path="url(#SVGID_6_)"
             inkscape:connector-curvature="0"
             style="fill:#1d1d1b" />
        </g>
      </g>
    </g>
    <g
       id="g40"
       transform="matrix(0.37808432,0,0,0.37808432,-77.181209,815.62718)">
      <defs
         id="defs42">
        <rect
           id="SVGID_7_"
           x="706.90002"
           y="252.8"
           width="1413.9"
           height="273.70001" />
      </defs>
      <clipPath
         id="clipPath5148">
        <use
           xlink:href="#SVGID_7_"
           style="overflow:visible"
           id="use5150"
           x="0"
           y="0"
           width="100%"
           height="100%" />
      </clipPath>
      <path
         class="st3"
         d="m 1921,526.5 45.6,0 c 4.5,0 7.3,-2.7 7.3,-7.2 l 0,-86.4 c 0,-27.7 -3,-57.1 -6.5,-69.1 l 1.7,0 c 0,0.8 3.9,9.5 9,18.6 l 87,140.8 c 1.7,2.5 3.7,3.4 6.5,3.4 l 41.8,0 c 4.5,0 7.3,-2.7 7.3,-7.2 l 0,-259.4 c 0,-4.4 -2.8,-7.2 -7.3,-7.2 l -45.6,0 c -4.5,0 -7.3,2.7 -7.3,7.2 l 0,86.9 c 0,23.9 3.7,57.9 8.4,78.2 l -1.7,0 c -0.9,-2.7 -6.7,-14.6 -11.8,-23 l -85.9,-146.3 c -1.3,-1.9 -3.4,-3 -6.2,-3 l -42.3,0 c -4.5,0 -7.3,2.7 -7.3,7.2 l 0,259.3 c 0,4.4 2.8,7.2 7.3,7.2 m -47.4,0 c 4.5,0 7.3,-2.7 7.3,-7.2 l 0,-39.5 c 0,-4.4 -2.8,-7.2 -7.3,-7.2 l -108.1,0 c -4.5,0 -7.3,-2.7 -7.3,-7.2 l 0,-41.6 c 0,-4.4 2.8,-7.2 7.3,-7.2 l 88.7,0 c 4.5,0 7.3,-2.7 7.3,-7.2 l 0,-39.5 c 0,-4.4 -2.8,-7.2 -7.3,-7.2 l -88.7,0 c -4.5,0 -7.3,-2.7 -7.3,-7.2 l 0,-39.5 c 0,-4.4 2.8,-7.2 7.3,-7.2 l 108.1,0 c 4.5,0 7.3,-2.7 7.3,-7.2 l 0,-39.5 c 0,-4.4 -2.8,-7.2 -7.3,-7.2 l -168.4,0 c -4.5,0 -7.3,2.7 -7.3,7.2 l 0,257.2 c 0,4.4 2.8,7.2 7.3,7.2 l 168.4,0 z m -321.1,0 45.6,0 c 4.5,0 7.3,-2.7 7.3,-7.2 l 0,-203.3 c 0,-4.4 2.8,-7.2 7.3,-7.2 l 48.2,0 c 4.5,0 7.3,-2.7 7.3,-7.2 l 0,-39.5 c 0,-4.4 -2.8,-7.2 -7.3,-7.2 l -171.4,0 c -4.5,0 -7.3,2.7 -7.3,7.2 l 0,39.5 c 0,4.4 2.8,7.2 7.3,7.2 l 48.2,0 c 4.5,0 7.3,2.7 7.3,7.2 l 0,203.3 c 0.2,4.4 3,7.2 7.5,7.2 m -131.6,-43.1 c 3.2,0 4.3,0.4 5,2.5 l 10.1,37.4 c 0.6,2.1 2.2,3.2 4.5,3.2 l 53.4,0 c 3.2,0 4.7,-1.1 4.7,-3.2 0,-0.6 0,-1.1 -0.4,-2.3 l -79,-263.8 c -0.9,-3 -3.7,-4.4 -6.9,-4.4 l -65.2,0 c -3.2,0 -6,1.5 -6.9,4.4 0,0 -78.6,261.4 -78.8,262.1 -0.4,1.1 -0.9,3 -0.9,4 0,2.1 1.7,3.2 5,3.2 l 53.2,0 c 2.2,0 3.7,-1.1 4.3,-3.2 l 10.1,-37.4 c 0.6,-2.1 1.5,-2.5 5,-2.5 l 82.8,0 z M 1354,429.5 c -3.9,0 -5,-1.7 -4.3,-4.4 l 25,-91.3 1.1,-8.7 7.5,0 1.1,8.7 24.8,91.3 c 0.6,2.7 -0.6,4.4 -4.5,4.4 l -50.7,0 z m -315.4,97 45.6,0 c 4.5,0 7.3,-2.7 7.3,-7.2 l 0,-91.3 c 0,-4.4 2.8,-7.2 7.3,-7.2 l 37.2,0 c 1.9,0 3.7,0.8 4.5,3 l 42,99.3 c 1.1,2.3 2.6,3.4 4.3,3.4 l 52.1,0 c 3.4,0 5.2,-1.7 5.2,-3.4 0,-1.7 -0.9,-4.4 -2.8,-8.9 l -42.2,-100.8 c -0.6,-1.7 -1.1,-3 -1.1,-4.6 0,-1.7 1.1,-3 3.2,-4.2 24.8,-14.8 36.4,-36.8 36.4,-66.2 0,-51.1 -32.9,-83.5 -88.1,-83.5 l -111.1,0 c -4.5,0 -7.3,2.7 -7.3,7.2 l 0,257.2 c 0.2,4.4 2.9,7.2 7.5,7.2 m 111.7,-157.7 -51.5,0 c -4.5,0 -7.3,-2.7 -7.3,-7.2 l 0,-45.6 c 0,-4.4 2.8,-7.2 7.3,-7.2 l 51.5,0 c 17,0 30.1,11.2 30.1,26.2 l 0,7.4 c 0.1,15 -13.5,26.4 -30.1,26.4 m -210.9,157.7 45.6,0 c 4.5,0 7.3,-2.7 7.3,-7.2 l 0,-259.3 c 0,-4.4 -2.8,-7.2 -7.3,-7.2 l -45.6,0 c -4.5,0 -7.3,2.7 -7.3,7.2 l 0,259.3 c 0,4.4 2.8,7.2 7.3,7.2 M 774.5,373.7 c -4.5,0 -7.3,-2.7 -7.3,-7.2 l 0,-50.5 c 0,-4.4 2.8,-7.2 7.3,-7.2 l 42.6,0 c 17,0 30.1,11.6 30.1,29.6 l 0,6.1 c 0,18 -13.1,29.2 -30.1,29.2 l -42.6,0 z m -14.6,152.8 c 4.5,0 7.3,-2.7 7.3,-7.2 l 0,-84.7 c 0,-4.4 2.8,-7.2 7.3,-7.2 l 41.3,0 c 59.2,0 88.5,-40.4 88.5,-83.1 l 0,-6.6 c 0,-50.9 -29.3,-82.8 -88.3,-82.8 l -101.7,0 c -4.5,0 -7.3,2.7 -7.3,7.2 l 0,257.2 c 0,4.4 2.8,7.2 7.3,7.2 l 45.6,0 z"
         id="path48"
         clip-path="url(#SVGID_8_)"
         inkscape:connector-curvature="0"
         style="fill:#181716" />
    </g>
  </g>
</svg>
